<?xml version="1.0" encoding="utf-8"?>
<!-- Generator: Adobe Illustrator 19.2.1, SVG Export Plug-In . SVG Version: 6.00 Build 0)  -->
<svg version="1.1" id="Layer_1" xmlns="http://www.w3.org/2000/svg" xmlns:xlink="http://www.w3.org/1999/xlink" x="0px" y="0px"
	 viewBox="0 0 36 36" style="enable-background:new 0 0 36 36;" xml:space="preserve">
<style type="text/css">
	.st0{fill:#EDE3DD;}
</style>
<path class="st0" d="M33,0H3C1.3,0,0,1.3,0,3v30c0,1.7,1.3,3,3,3h30c1.7,0,3-1.3,3-3V3C36,1.3,34.7,0,33,0z M26,20h-6v6
	c0,1.1-0.9,2-2,2s-2-0.9-2-2v-6h-6c-1.1,0-2-0.9-2-2s0.9-2,2-2h6v-6c0-1.1,0.9-2,2-2s2,0.9,2,2v6h6c1.1,0,2,0.9,2,2S27.1,20,26,20z"
	/>
</svg>
